<?xml version="1.0" encoding="utf-8"?>
<!-- Generator: Adobe Illustrator 23.0.1, SVG Export Plug-In . SVG Version: 6.00 Build 0)  -->
<svg version="1.1" id="Слой_1" xmlns="http://www.w3.org/2000/svg" xmlns:xlink="http://www.w3.org/1999/xlink" x="0px" y="0px"
	 viewBox="0 0 389.7 160.6" style="enable-background:new 0 0 389.7 160.6;" xml:space="preserve">
<style type="text/css">
	.st0{fill-rule:evenodd;clip-rule:evenodd;fill:#FFFFFF;}
</style>
<path id="lab" class="st0" d="M99.8,160.6H0V0h17.2v144.6h82.5V160.6z M217.7,99.8l-30.9-75.7l-31,75.7L217.7,99.8L217.7,99.8z
	 M224.7,115.9H149l-18.4,44.7h-18.4L178.8,0h16l66.5,160.6H243L224.7,115.9L224.7,115.9z M292.2,144.6h48.1c9.6,0,17.4-2.8,23.2-8.4
	c5.9-5.6,8.8-12.8,8.8-21.5c0-8.9-3-16.4-8.9-22.7c-5.9-6.2-13.6-9.3-23.1-9.3h-48.1V144.6L292.2,144.6z M336.9,16.1h-44.7v51.4
	h44.7c8.6,0,15.3-2.3,20.2-7c4.9-4.7,7.3-11.1,7.3-19.2c0-7.5-2.4-13.5-7.3-18.2C352.2,18.5,345.5,16.1,336.9,16.1L336.9,16.1z
	 M363.3,74.6c0.7,0.3,1.7,0.7,2.8,1.2c1.1,0.5,3.2,1.9,6.3,4.3c3.1,2.3,5.7,4.9,8.1,7.6c2.3,2.8,4.4,6.6,6.3,11.5
	c1.9,4.9,2.9,10.1,2.9,15.5c0,13.3-4.6,24.3-13.7,32.9c-9.1,8.7-21,13-35.6,13H275V0h61.9c13,0,23.7,4,32.1,11.9
	c8.4,8,12.6,17.8,12.6,29.4c0,4.7-0.6,9.1-1.8,13c-1.2,4-2.7,7.2-4.6,9.6c-1.9,2.4-3.7,4.4-5.5,6.1c-1.8,1.7-3.3,2.8-4.5,3.4
	L363.3,74.6L363.3,74.6z"/>
</svg>
