<?xml version="1.0" encoding="utf-8"?>
<!-- Generator: Adobe Illustrator 23.0.1, SVG Export Plug-In . SVG Version: 6.00 Build 0)  -->
<svg version="1.1" id="Слой_1" xmlns="http://www.w3.org/2000/svg" xmlns:xlink="http://www.w3.org/1999/xlink" x="0px" y="0px"
	 viewBox="0 0 841.8 162" style="enable-background:new 0 0 841.8 162;" xml:space="preserve">
<style type="text/css">
	.st0{fill-rule:evenodd;clip-rule:evenodd;fill:#FFFFFF;}
	.st1{fill-rule:evenodd;clip-rule:evenodd;fill:#01DA00;}
</style>
<g>
	<g>
		<path class="st0" d="M333.1,1.1l-66.6,87.4L199.9,1.1H185v160.8h17.3V31l64.2,84.9L330.8,31v130.9H348V1.1H333.1z M380,1.1v160.8
			h112v-16h-94.8V86.1h74.2V70h-74.2V17.2h92.5V1.1H380z M561,17.4h-33.3v128.5H561c18.8,0,34.6-6.2,47.4-18.7
			c12.8-12.5,19.1-27.6,19.1-45.5c0-17.9-6.4-33.1-19.1-45.5C595.6,23.6,579.8,17.4,561,17.4z M510.5,1.3H561
			c23.4,0,43.1,7.9,59.3,23.6c16.2,15.8,24.3,34.6,24.3,56.7c0,22-8.1,40.9-24.3,56.7c-16.2,15.8-36,23.6-59.3,23.6h-50.5V1.3z
			 M661.9,161.9h17.2V1.3h-17.2L661.9,161.9z M798.2,101.1l-30.9-75.7l-31,75.7L798.2,101.1L798.2,101.1z M805.1,117.2h-75.7
			l-18.4,44.7h-18.4L759.2,1.3h16l66.5,160.6h-18.3L805.1,117.2L805.1,117.2z"/>
	</g>
	<path class="st1" d="M84.5,0L84.5,0L169,80.8L84.9,162L84.5,0z M0,0L0,0l84.5,80.8L0.4,162L0,0z"/>
</g>
</svg>
