<svg xmlns="http://www.w3.org/2000/svg" width="175" height="176" viewBox="0 0 175 176">
    <g fill="#000" fill-rule="nonzero">
        <path d="M88.5 9.7l.6-9 2.1.1-.2 3.6 4 .3.2-3.6 2.1.1-.6 9-2.1-.1.2-3.6-4-.3-.2 3.6zM98.2 7.7c.2-.9.6-1.6 1.4-2 .8-.4 1.7-.5 2.7-.2.9.2 1.7.4 2.4.8v-.2c.1-.6 0-1.1-.3-1.5-.3-.4-.8-.7-1.5-.8-.8-.1-1.7-.1-2.6.1l-.3-1.7c.6-.1 1.2-.2 1.7-.2s1.1 0 1.8.2c1.3.2 2.2.7 2.7 1.5s.7 1.8.5 2.9l-1 5.2-2-.4.2-1.1c-.9.7-1.9 1-3.1.7-.6-.1-1.1-.3-1.5-.6-.4-.3-.8-.7-1-1.2-.2-.5-.2-.9-.1-1.5zm2 .3c-.1.4 0 .8.3 1 .3.3.7.5 1.2.6.7.1 1.3.1 1.8-.2.5-.3.8-.7.9-1.2l.1-.5c-.5-.3-1.2-.6-2-.7-.6-.1-1.2-.1-1.6.1-.4.2-.6.5-.7.9zM107.2 12.1l2.8-8.5 1.9.6 1.4 4.8 4-3.1 1.9.6-2.8 8.5-2-.6 1.9-5.7-3.9 2.9-1.4-4.7-1.9 5.7zM123.8 13.6c.4-.7 1-1.3 1.6-1.8.7-.4 1.4-.7 2.2-.7.8 0 1.6.1 2.3.6.5.3.9.6 1.2 1 .3.4.6.8.7 1.2.1.4.2.9.2 1.3s-.1.9-.2 1.4c-.1.5-.3.9-.6 1.4-.1.2-.2.4-.3.5l-5.8-3.2c-.3.7-.3 1.3-.1 1.9.2.6.6 1 1.2 1.4.4.2.8.4 1.3.4.4 0 .9 0 1.4-.2l.5 1.5c-1.4.5-2.7.4-4-.3-.8-.4-1.3-1-1.8-1.6-.4-.7-.6-1.4-.6-2.3.1-.9.4-1.7.8-2.5zm2.1.4l4 2.2c.3-.6.3-1.3.2-1.8-.1-.6-.5-1-1.1-1.3-.5-.3-1.1-.4-1.7-.2-.5.2-1 .6-1.4 1.1zM132.4 18.6c.5-.7 1.1-1.2 1.9-1.6.7-.3 1.5-.5 2.4-.4.8.1 1.6.4 2.3.9.7.5 1.1 1 1.4 1.5.3.5.5 1.2.6 1.8l-1.8.4c-.1-.5-.2-.9-.4-1.3s-.5-.7-.9-1c-.6-.4-1.3-.6-2-.4-.7.2-1.3.6-1.8 1.2-.5.7-.7 1.4-.6 2.1.1.7.4 1.4 1.1 1.8.4.3.8.4 1.2.5.4.1.9 0 1.4 0l.3 1.7c-.7.2-1.4.2-2 .1-.6-.1-1.3-.4-1.9-.9-.7-.5-1.2-1.1-1.6-1.9-.3-.8-.5-1.5-.4-2.3.1-.8.3-1.6.8-2.2zM141.3 21.7l1.2-1.3 5.9 5.3-1.2 1.3-2.2-2-4.8 5.4-1.5-1.4 4.8-5.4zM143 32.9l6.7-6 1.4 1.5-2.3 2.1 1.4 1.5c.5.5.8 1 1 1.6.2.5.2 1 .1 1.6-.1.5-.4 1-.9 1.4-.7.6-1.4.9-2.2.8-.8-.1-1.6-.5-2.3-1.3l-2.9-3.2zm2.6.4l1.3 1.4c.3.4.7.6 1.1.7.4.1.7-.1 1-.3.3-.3.4-.6.4-.9 0-.3-.2-.7-.6-1.1l-1.3-1.4-1.9 1.6zM147 39.9c.7.7 1.4.8 2 .3l.1-.1.1-.1-.5-.7 1.8-1.4 1.4 1.8-1.6 1.2c-.7.6-1.4.8-2 .7-.6-.1-1.2-.4-1.8-1.1l.5-.6zM158.2 43.3l3-1.7 1 1.8-2.6 1.5c-.4.2-.6.5-.8.9-.2.4-.1.8.1 1.2.4.7.9 1.2 1.6 1.6l3.4-1.9 1 1.8-7.8 4.4-1-1.8 2.9-1.6c-.3-.2-.7-.5-1-.9-.4-.4-.6-.7-.9-1.1-.5-.8-.6-1.6-.5-2.3.4-.9.8-1.5 1.6-1.9zM162 52.1c.8-.3 1.6-.5 2.4-.4.8.1 1.5.3 2.2.8.6.5 1.1 1.1 1.5 1.8.2.5.3 1 .4 1.5.1.5 0 1-.2 1.4-.1.4-.4.8-.6 1.2-.3.4-.6.7-1 1-.4.3-.8.5-1.3.7-.2.1-.4.2-.5.2l-2.5-6.1c-.6.4-1 .9-1.2 1.4-.2.5-.2 1.2.1 1.8.2.5.4.8.7 1.1.3.3.7.5 1.2.7l-.5 1.5c-1.4-.4-2.4-1.3-3-2.7-.3-.8-.5-1.6-.4-2.4.1-.8.4-1.5.9-2.2.5-.7.9-.9 1.8-1.3zm1.3 1.7l1.8 4.3c.6-.3 1.1-.8 1.3-1.3.3-.5.3-1.1 0-1.7-.2-.6-.6-1-1.2-1.2-.6-.2-1.2-.3-1.9-.1zM161.6 63l8.7-2.3.5 2-3.3 3.8 4.7 1.7.5 2-8.7 2.3-.5-2 5.8-1.5-4.6-1.7 3.1-3.7-5.8 1.5zM165 78.4l9-.6.5 8-9 .6-.1-2.1 7.2-.5-.3-3.9-7.2.5zM170.1 87.9c.8 0 1.6.3 2.3.8.7.5 1.2 1.1 1.6 1.8.4.8.5 1.6.5 2.5-.1.9-.3 1.7-.8 2.4s-1.1 1.2-1.8 1.6c-.7.4-1.5.5-2.4.5-.6 0-1.2-.2-1.8-.5-.6-.3-1-.6-1.4-1.1-.4-.4-.7-1-.9-1.6-.2-.6-.3-1.3-.3-1.9.1-.9.3-1.7.8-2.4s1.1-1.2 1.8-1.6c.8-.4 1.5-.5 2.4-.5zM170 90c-.8 0-1.5.2-2.1.7-.6.5-.9 1.1-1 1.9 0 .8.2 1.5.7 2 .5.5 1.2.8 2 .9.8 0 1.5-.2 2.1-.7.6-.5.9-1.1 1-1.9 0-.8-.2-1.5-.7-2-.5-.6-1.2-.9-2-.9zM165.1 97.2l3.9 4 4.9-2.4-.4 2.2-3.3 1.5 2.5 2.6-.4 2.2-3.7-3.9-5.1 2.5.4-2.2 3.5-1.6-2.7-2.7zM163.3 106.8l8.6 2.6-1.3 4.4c-.3.9-.7 1.5-1.2 1.9-.5.4-1.1.5-1.8.3-.9-.3-1.4-.9-1.6-2-.7 1.1-1.6 1.5-2.7 1.1-.7-.2-1.2-.7-1.4-1.4-.2-.7-.2-1.5.1-2.5l1.3-4.4zm.9 2.4l-.7 2.2c-.1.5-.2.9 0 1.2.2.3.4.5.7.6.3.1.6 0 .9-.2.3-.2.5-.6.6-1.1l.6-2.1-2.1-.6zm3.5 1l-.6 2c-.1.4-.1.7 0 1 .1.3.4.5.7.6.3.1.6.1.8-.1.2-.2.4-.4.6-.9l.6-2.1-2.1-.5zM163.2 116.1c.9.4 1.4 1 1.6 1.8.2.8.1 1.7-.4 2.7-.3.8-.8 1.5-1.3 2.1l.2.1c.6.3 1.1.3 1.5.1.4-.2.8-.6 1.1-1.3.3-.7.5-1.6.5-2.6l1.7.1c0 .6 0 1.2-.1 1.7s-.3 1.1-.6 1.7c-.5 1.2-1.2 2-2.1 2.3-.9.3-1.9.3-3-.2l-4.9-2.1.8-1.9 1 .4c-.5-1-.5-2.1 0-3.2.2-.5.5-1 .9-1.3.4-.4.8-.6 1.3-.7.7 0 1.2 0 1.8.3zm-.8 1.9c-.4-.2-.7-.1-1.1.1-.3.2-.6.5-.8 1-.3.6-.3 1.2-.2 1.8.1.6.5.9 1 1.2l.5.2c.5-.5.8-1 1.1-1.7.3-.6.3-1.1.3-1.5-.1-.6-.4-.9-.8-1.1zM160.9 125.7c.8.4 1.3 1 1.8 1.7.4.7.6 1.5.6 2.3 0 .8-.2 1.6-.6 2.4-.4.7-.9 1.2-1.4 1.6-.5.4-1.1.6-1.7.8l-.6-1.8c.5-.1.9-.3 1.3-.5.3-.2.6-.5.9-1 .4-.6.4-1.3.2-2s-.7-1.3-1.4-1.7c-.7-.4-1.4-.5-2.2-.4-.7.2-1.3.6-1.7 1.2-.2.4-.4.8-.4 1.2 0 .4 0 .9.2 1.4l-1.7.5c-.2-.7-.3-1.4-.3-2 0-.6.3-1.3.7-2 .4-.8 1-1.3 1.7-1.7.7-.4 1.5-.6 2.3-.6.8 0 1.5.2 2.3.6zM158.6 135l1.4 1.1-4.6 6.4-1.4-1.1 1.7-2.3-5.8-4.2 1.2-1.7 5.8 4.2zM150.2 138.7c.7.6 1 1.4 1 2.2-.1.8-.5 1.7-1.2 2.5-.6.7-1.2 1.2-1.9 1.6l.1.1c.5.4 1 .6 1.5.5.5-.1 1-.4 1.5-.9.5-.6 1-1.4 1.3-2.3l1.6.7c-.2.6-.4 1.1-.7 1.6-.3.5-.6 1-1.1 1.5-.9 1-1.8 1.5-2.7 1.5-.9 0-1.8-.3-2.8-1.1l-4-3.6 1.4-1.5.8.7c-.2-1.1.2-2.1 1-3 .4-.4.8-.8 1.3-1 .5-.2 1-.3 1.5-.2.5.1 1 .3 1.4.7zm-1.3 1.6c-.3-.3-.7-.4-1-.3-.4.1-.8.3-1.1.7-.5.5-.7 1-.7 1.6 0 .6.1 1 .6 1.4l.4.3c.6-.3 1.1-.7 1.6-1.3.4-.5.7-.9.7-1.4 0-.5-.2-.7-.5-1zM147.1 148.9l1.2 1.3-5.9 5.2-1.2-1.3 2.2-1.9-4.8-5.4 1.5-1.4 4.8 5.4zM135.8 149.3l5.2 7.3-1.7 1.2-1.8-2.5-1.7 1.2c-.6.4-1.1.7-1.7.8-.5.1-1.1.1-1.6 0-.5-.2-1-.5-1.3-1-.5-.8-.7-1.5-.5-2.3.2-.8.7-1.5 1.6-2.1l3.5-2.6zm-.7 2.5l-1.6 1.1c-.4.3-.7.6-.8 1-.1.3 0 .7.2 1 .2.3.5.5.9.5s.8-.1 1.2-.5l1.5-1.1-1.4-2zM131.4 157.9c.4.8.6 1.5.6 2.4 0 .8-.2 1.6-.6 2.3-.4.7-1 1.3-1.8 1.7-.7.4-1.4.6-2 .7-.6.1-1.3 0-1.9-.2l.4-1.8c.5.1.9.2 1.3.2s.8-.1 1.2-.4c.6-.4 1-.9 1.2-1.6.2-.7 0-1.4-.4-2.1-.4-.7-1-1.2-1.7-1.4-.7-.2-1.4-.2-2.1.2-.4.2-.7.5-.9.9-.2.4-.4.8-.5 1.3l-1.7-.5c.2-.7.4-1.3.8-1.9.4-.5.9-1 1.6-1.4.8-.4 1.6-.6 2.4-.6.8 0 1.6.2 2.3.7.8.2 1.3.7 1.8 1.5zM121.8 158.2l-1 4.1c.7-.1 1.3 0 1.8.3s.9.7 1.2 1.3c.3.8.3 1.6 0 2.3-.4.7-1.1 1.3-2.1 1.7l-4.2 1.7-3.5-8.3 1.9-.8 1.2 2.8 1.7-.7.8-3.6 2.2-.8zm0 6.4c-.2-.4-.4-.6-.8-.7-.4-.1-.8 0-1.3.2l-2 .8 1 2.5 2-.8c.5-.2.8-.5 1-.8.3-.5.3-.8.1-1.2zM104.9 168.4l.3 1.9-7 1.2-.3-1.9zM86.9 166.1l-.5 9-2.1-.1.2-3.6-4-.2-.2 3.6-2.1-.1.5-9 2.1.1-.2 3.6 4 .2.2-3.6zM77.3 168.1c-.2.9-.6 1.6-1.4 2-.8.4-1.7.5-2.7.3-.9-.2-1.7-.4-2.4-.8v.2c-.1.6 0 1.1.3 1.5.3.4.8.7 1.5.8.8.1 1.7.1 2.6-.1l.3 1.7c-.6.1-1.2.2-1.7.3-.5.1-1.1 0-1.8-.1-1.3-.2-2.2-.7-2.7-1.5s-.7-1.7-.5-2.9l.9-5.2 2 .4-.2 1.1c.9-.7 1.9-1 3.1-.8.6.1 1.1.3 1.5.6.4.3.8.7 1 1.1.2.3.3.8.2 1.4zm-2.1-.3c.1-.4 0-.8-.3-1-.3-.3-.7-.5-1.2-.6-.7-.1-1.3 0-1.8.2-.5.3-.8.7-.9 1.2l-.1.5c.5.3 1.2.6 2 .7.6.1 1.2.1 1.5-.1.5-.1.8-.4.8-.9zM68.2 163.8l-2.7 8.5-2-.6-1.4-4.8-4 3.1-1.9-.6 2.7-8.5 2 .6-1.8 5.7 3.9-3 1.5 4.7 1.8-5.7zM51.6 162.5c-.4.7-.9 1.3-1.6 1.8-.7.4-1.4.7-2.2.7-.8 0-1.6-.1-2.3-.5-.5-.3-.9-.6-1.2-1-.3-.4-.6-.8-.7-1.2-.2-.4-.2-.9-.2-1.3 0-.5 0-.9.2-1.4.1-.5.3-.9.6-1.4.1-.2.2-.4.3-.5l5.8 3.2c.2-.7.3-1.3 0-1.9-.2-.6-.6-1-1.2-1.3-.4-.2-.9-.4-1.3-.4s-.9 0-1.4.2l-.6-1.5c1.4-.5 2.7-.4 4 .3.8.4 1.3 1 1.8 1.6.4.7.6 1.4.7 2.3.1.9-.3 1.5-.7 2.3zm-2.1-.4l-4-2.2c-.3.6-.3 1.3-.2 1.8.1.6.5 1 1.1 1.3.5.3 1.1.4 1.7.2.5-.2 1-.6 1.4-1.1zM42.9 157.6c-.5.7-1.1 1.2-1.9 1.6-.7.4-1.5.5-2.4.4-.8-.1-1.6-.4-2.3-.9-.7-.5-1.1-1-1.5-1.5-.3-.5-.5-1.2-.6-1.8l1.8-.4c.1.5.2.9.4 1.3s.5.7.9 1c.6.4 1.3.6 2 .4.7-.2 1.3-.6 1.8-1.2.5-.7.7-1.4.6-2.1-.1-.8-.5-1.4-1.1-1.8-.4-.3-.8-.4-1.2-.5-.4-.1-.9 0-1.4.1l-.3-1.7c.7-.2 1.4-.2 2-.1.6.1 1.3.4 2 .9s1.2 1.1 1.6 1.9c.4.8.5 1.5.4 2.3 0 .7-.3 1.4-.8 2.1zM34 154.5l-1.2 1.3-5.9-5.2 1.2-1.3 2.2 1.9 4.8-5.4 1.5 1.4-4.8 5.4zM32.2 143.3l-6.6 6.1-1.4-1.5 2.3-2.1-1.4-1.5c-.5-.5-.8-1-1-1.5-.2-.5-.3-1-.2-1.6.1-.5.4-1 .9-1.4.7-.6 1.4-.9 2.2-.8.8.1 1.6.5 2.3 1.3l2.9 3zm-2.6-.3l-1.3-1.4c-.4-.4-.7-.6-1.1-.7-.4-.1-.7.1-1 .3-.3.3-.4.6-.4.9 0 .4.2.7.6 1.1l1.3 1.4 1.9-1.6zM28.1 136.4c-.8-.6-1.4-.7-2-.3l-.1.1-.1.1.5.7-1.8 1.4-1.4-1.8 1.6-1.2c.7-.6 1.4-.8 2-.8.6 0 1.2.4 1.8 1.1l-.5.7zM16.9 133.2l-3 1.7-1-1.8 2.6-1.5c.4-.2.6-.5.8-.9.1-.4.1-.8-.1-1.2-.4-.7-.9-1.2-1.6-1.6l-3.4 2-1-1.8 7.8-4.5 1 1.8-2.9 1.7c.3.2.7.5 1 .9.4.4.6.7.9 1.1.5.8.6 1.6.5 2.3-.1.7-.8 1.3-1.6 1.8zM13.1 124.3c-.8.3-1.6.5-2.4.4-.8-.1-1.5-.3-2.2-.8-.7-.5-1.1-1.1-1.5-1.8-.2-.5-.3-1-.4-1.5 0-.5 0-1 .2-1.4.1-.4.4-.8.6-1.2.3-.4.6-.7 1-1 .4-.3.8-.5 1.3-.7.2-.1.4-.2.5-.2l2.6 6.1c.6-.4 1-.9 1.2-1.5.2-.6.1-1.2-.1-1.8-.2-.4-.4-.8-.8-1.1-.3-.3-.7-.5-1.2-.7l.5-1.5c1.4.4 2.4 1.3 3 2.7.3.8.5 1.6.4 2.4-.1.8-.4 1.5-.9 2.2-.3.5-1 1-1.8 1.4zm-1.4-1.6l-1.8-4.2c-.6.3-1 .8-1.3 1.3-.2.5-.2 1.1 0 1.7.2.6.6 1 1.2 1.2.6.1 1.2.2 1.9 0zM13.3 113.4l-8.6 2.4-.5-2 3.3-3.8-4.8-1.6-.5-2 8.6-2.4.5 2-5.8 1.6 4.6 1.6L7 113l5.7-1.6zM9.8 98l-8.9.7-.6-8 8.9-.7.2 2.1-7.2.6.3 3.9 7.2-.6zM4.6 88.6c-.8 0-1.6-.3-2.3-.7-.7-.4-1.2-1-1.6-1.8-.4-.8-.6-1.6-.5-2.5 0-.9.3-1.7.7-2.4.5-.7 1-1.3 1.8-1.6.7-.4 1.5-.5 2.4-.5.6 0 1.2.2 1.8.5.6.3 1 .6 1.4 1.1.4.5.7 1 .9 1.6.2.6.3 1.3.3 1.9 0 .9-.3 1.7-.7 2.4-.5.7-1.1 1.3-1.8 1.6-.7.3-1.5.4-2.4.4zm.1-2.1c.8 0 1.5-.2 2.1-.7.6-.5.9-1.1.9-1.9 0-.8-.2-1.5-.7-2-.5-.5-1.2-.8-2-.8s-1.5.2-2.1.7c-.6.5-.9 1.1-.9 1.9 0 .8.2 1.5.7 2 .5.5 1.2.8 2 .8zM9.6 79.3l-4-4-4.9 2.4.4-2.2 3.3-1.6-2.6-2.5.4-2.2L6 73.1l5.1-2.5-.4 2.2-3.5 1.7 2.7 2.7zM11.3 69.6l-8.6-2.5L4 62.7c.2-.9.6-1.5 1.2-1.9.5-.4 1.1-.5 1.8-.3.9.3 1.4.9 1.6 2 .7-1.1 1.6-1.5 2.7-1.2.7.2 1.2.7 1.5 1.3.3.7.2 1.5-.1 2.5l-1.4 4.5zm-4.5-3.4l.6-2c.1-.4.1-.7 0-1-.1-.3-.4-.5-.7-.6-.3-.1-.6-.1-.8.1-.2.2-.4.4-.6.9l-.6 2.1 2.1.5zm3.5 1L11 65c.1-.5.1-.9 0-1.2-.1-.3-.4-.5-.7-.6-.3-.1-.6 0-.9.2-.3.2-.5.6-.6 1.1l-.6 2.1 2.1.6zM11.3 60.4c-.9-.4-1.4-1-1.6-1.8-.2-.8-.1-1.7.3-2.7.3-.8.8-1.5 1.3-2.1l-.2-.1c-.6-.2-1.1-.3-1.6 0-.5.2-.8.7-1.1 1.3-.3.7-.5 1.6-.5 2.6l-1.7-.1c0-.6 0-1.2.1-1.7s.3-1.1.5-1.7c.5-1.2 1.2-2 2.1-2.3.9-.4 1.9-.3 3 .2l4.9 2.1L16 56l-1-.4c.5 1 .5 2.1.1 3.2-.2.5-.5 1-.9 1.3-.4.3-.8.6-1.3.7-.5-.1-1.1-.2-1.6-.4zm.7-1.9c.4.2.7.1 1.1-.1.4-.2.6-.5.8-1 .3-.6.3-1.2.2-1.8-.1-.5-.5-.9-1-1.1l-.5-.2c-.5.5-.8 1-1.1 1.8-.3.6-.3 1.1-.2 1.5.1.4.3.7.7.9zM13.5 50.7c-.8-.4-1.3-1-1.8-1.7s-.6-1.5-.7-2.3c0-.8.2-1.6.6-2.4.4-.7.8-1.2 1.4-1.6.5-.4 1.1-.6 1.7-.8l.6 1.8c-.5.1-.9.3-1.3.5-.3.2-.6.5-.9 1-.4.6-.4 1.3-.2 2s.7 1.3 1.4 1.6c.7.4 1.4.5 2.2.4.8-.1 1.3-.6 1.7-1.3.2-.4.3-.8.4-1.2 0-.4-.1-.9-.2-1.4l1.7-.5c.2.7.3 1.4.3 2 0 .6-.3 1.3-.7 2-.4.8-1 1.3-1.7 1.8-.7.4-1.5.6-2.3.6-.8 0-1.5-.1-2.2-.5zM15.7 41.5l-1.5-1 4.6-6.4 1.5 1-1.7 2.4 5.8 4.2-1.2 1.7-5.8-4.2zM24 37.6c-.7-.6-1-1.4-1-2.2.1-.8.5-1.7 1.2-2.5.6-.7 1.2-1.2 1.9-1.6l-.1-.1c-.5-.4-1-.6-1.5-.5-.5.1-1 .4-1.5.9-.5.6-1 1.4-1.3 2.3l-1.6-.7c.2-.6.4-1.1.7-1.6.3-.5.6-1 1.1-1.5.9-1 1.8-1.5 2.7-1.6.9-.1 1.9.3 2.8 1.1l4 3.5-1.4 1.5-.8-.7c.2 1.1-.2 2.1-1 3-.4.4-.8.8-1.3 1-.5.2-1 .3-1.5.2-.4.1-.9-.1-1.4-.5zm1.3-1.6c.3.3.7.4 1.1.3.4-.1.8-.3 1.1-.7.5-.5.7-1.1.7-1.6 0-.6-.2-1-.6-1.4l-.4-.3c-.6.3-1.1.7-1.6 1.3-.4.5-.7.9-.7 1.4 0 .5.1.7.4 1zM27 27.5l-1.2-1.3 5.8-5.3 1.2 1.3-2.1 2 4.8 5.3-1.5 1.4-4.8-5.3zM38.3 26.9L33 19.7l1.7-1.2 1.8 2.5 1.7-1.2c.6-.4 1.1-.7 1.7-.8.5-.2 1.1-.1 1.6 0 .5.2 1 .5 1.3 1 .5.7.7 1.5.6 2.3-.2.8-.7 1.5-1.5 2.1l-3.6 2.5zm.7-2.5l1.6-1.1c.4-.3.7-.6.8-1 .1-.3 0-.7-.2-1-.2-.3-.5-.5-.9-.5s-.8.2-1.2.5l-1.5 1.1 1.4 2zM42.7 18.3c-.4-.8-.7-1.5-.7-2.4 0-.8.2-1.6.6-2.3.4-.7 1-1.3 1.7-1.7.7-.4 1.4-.6 2-.7.6-.1 1.3 0 1.9.2l-.4 1.8c-.5-.1-.9-.2-1.3-.2s-.8.1-1.2.4c-.6.4-1 .9-1.2 1.6-.1.7 0 1.4.4 2.1.4.7 1 1.2 1.7 1.4.7.2 1.4.2 2.1-.2.4-.2.7-.5.9-.9.2-.4.4-.8.5-1.3l1.7.4c-.1.7-.4 1.3-.8 1.9-.4.5-.9 1-1.6 1.4-.8.4-1.5.7-2.4.6-.8 0-1.6-.2-2.3-.6-.6-.2-1.2-.8-1.6-1.5zM52.3 17.9l1-4.1c-.7.1-1.3 0-1.8-.3s-.9-.7-1.2-1.3c-.4-.8-.3-1.6 0-2.3.4-.7 1.1-1.3 2.1-1.8l4.1-1.8 3.5 8.2-1.9.8-1.2-2.8-1.7.7-.8 3.6-2.1 1.1zm-.1-6.4c.2.4.4.6.8.7.4.1.8 0 1.3-.2l2-.9-1.1-2.5-2 .9c-.5.2-.8.5-1 .8-.2.4-.2.8 0 1.2zM69.1 7.5l-.3-1.9 7-1.3.3 1.9z"/>
    </g>
</svg>
