<svg xmlns="http://www.w3.org/2000/svg" width="55" height="90" viewBox="0 0 55 90">
    <path fill="#000" fill-rule="evenodd" d="M25.446 44.066c0 2.463-2.004 4.468-4.517 4.468a4.473 4.473 0 0 1-4.466-4.468V32.67c0-2.463 2.004-4.467 4.516-4.467a4.472 4.472 0 0 1 4.467 4.467v11.396zm3.641-2.357V32.67a4.472 4.472 0 0 1 4.467-4.467h.049a4.472 4.472 0 0 1 4.467 4.467v9.039c0 2.462-2.004 4.466-4.516 4.466a4.472 4.472 0 0 1-4.467-4.466zM3.641 54.284a4.473 4.473 0 0 1 4.467-4.468h7.115c1.533 1.522 3.556 2.358 5.756 2.358a8.038 8.038 0 0 0 5.706-2.358h9.324a4.473 4.473 0 0 1 4.467 4.468 4.472 4.472 0 0 1-4.467 4.467h-14.64a9.988 9.988 0 0 0-.756.002 1.83 1.83 0 0 0-1.75 1.853 1.83 1.83 0 0 0 1.82 1.786h.243c.537.012 2.438.12 4.396 1.057 2.997 1.432 4.795 4.12 5.348 7.989.069.482.322.91.712 1.201a1.822 1.822 0 0 0 2.893-1.715c-.506-3.547-1.894-6.414-4.127-8.532h5.861c4.471 0 8.109-3.637 8.109-8.108a8.135 8.135 0 0 0-4.439-7.222 8.058 8.058 0 0 0 2.032-5.353V20.684c0-2.463 2.015-4.468 4.491-4.468 2.477 0 4.492 2.005 4.492 4.468v43.819c0 11.996-9.76 21.756-21.757 21.756h-3.539c-11.997 0-21.757-9.76-21.757-21.756V54.284zm8.983-8.109H8.108c-1.6 0-3.135.468-4.467 1.355V8.108c0-2.463 2.015-4.466 4.492-4.466 2.476 0 4.491 2.003 4.491 4.466v38.067zm33.578-33.599c-4.484 0-8.132 3.636-8.132 8.108v5.233a8.06 8.06 0 0 0-4.516-1.356 8.036 8.036 0 0 0-6.288 3.008c-1.552-1.915-3.827-3.008-6.337-3.008a8 8 0 0 0-4.664 1.484V8.108C16.265 3.637 12.617 0 8.133 0 3.648 0 0 3.637 0 8.108v56.395C0 78.506 11.393 89.9 25.398 89.9h3.539c14.005 0 25.398-11.394 25.398-25.397V20.684c0-4.472-3.648-8.108-8.133-8.108z"/>
</svg>
