<svg xmlns="http://www.w3.org/2000/svg" xmlns:xlink="http://www.w3.org/1999/xlink" width="169" height="54" viewBox="0 0 169 54">
    <defs>
        <path id="a" d="M.245.418h7.086V9H.245z"/>
        <path id="c" d="M0 54h169V.577H0z"/>
    </defs>
    <g fill="none" fill-rule="evenodd">
        <path fill="#FFF" d="M19.554 20.004L.008 40h10.446L30 20.004 10.454.01 0 0zM149 0v40l20-20zM45.177 45L41.5 49.89 37.823 45H37v9h.954v-7.324l3.547 4.751 3.552-4.75V54H46v-9zM55 45v9h6v-.898h-5.08v-3.344h3.973v-.897H55.92v-2.957h4.955V45z"/>
        <g>
            <g transform="translate(68.346 45)">
                <mask id="b" fill="#fff">
                    <use xlink:href="#a"/>
                </mask>
                <path fill="#FFF" d="M2.913 1.28H1.156v6.864h1.757c.993 0 1.827-.333 2.502-.999.674-.667 1.011-1.477 1.011-2.433 0-.955-.337-1.766-1.011-2.433-.675-.665-1.509-.998-2.502-.998zM.245.419h2.668c1.233 0 2.28.422 3.133 1.264.856.84 1.285 1.85 1.285 3.027 0 1.176-.429 2.187-1.285 3.027C5.192 8.58 4.146 9 2.913 9H.245V.418z" mask="url(#b)"/>
            </g>
            <mask id="d" fill="#fff">
                <use xlink:href="#c"/>
            </mask>
            <path fill="#FFF" d="M83.928 54h.911v-8.582h-.91zM98.214 50.75l-1.632-4.044-1.637 4.045h3.27zm.368.862h-3.998L93.614 54h-.97l3.512-8.581H97l3.515 8.58h-.965l-.97-2.387zM113.588 54h-5.268v-8.582h.91v7.726h4.358zM126.453 50.75l-1.632-4.044-1.638 4.045h3.27zm.367.862h-3.998l-.97 2.388h-.97l3.514-8.581h.845l3.513 8.58h-.964l-.97-2.387zM137.47 53.144h2.542c.508 0 .917-.15 1.228-.449.308-.3.463-.683.463-1.15 0-.474-.157-.877-.47-1.21-.314-.333-.72-.5-1.22-.5h-2.544v3.309zm2.358-6.863h-2.359v2.746h2.359c.453 0 .81-.125 1.068-.374.258-.25.387-.59.387-1.026 0-.4-.129-.724-.387-.972-.258-.25-.615-.374-1.068-.374zm1.396 3.124c.04.015.09.037.148.066.06.027.17.102.331.226.162.123.304.26.426.407.122.148.234.351.334.612s.151.54.151.83c0 .71-.241 1.297-.721 1.76-.48.461-1.108.694-1.88.694h-3.455v-8.582h3.27c.686 0 1.251.213 1.695.638.443.424.666.949.666 1.57 0 .252-.032.484-.096.698a1.576 1.576 0 0 1-.242.511 2.565 2.565 0 0 1-.293.326 1.083 1.083 0 0 1-.24.184l-.094.06zM51.381 8.106h-8.377v12.472h8.377c1.702 0 3.154-.597 4.357-1.79 1.204-1.193 1.807-2.673 1.807-4.435 0-1.761-.603-3.242-1.807-4.444-1.203-1.201-2.655-1.803-4.357-1.803zM37.587 3.111H51.38c3.291 0 6.046 1.093 8.27 3.276 2.222 2.186 3.334 4.84 3.334 7.966 0 3.127-1.112 5.78-3.334 7.954-2.224 2.177-4.979 3.264-8.27 3.264h-8.377v12.473h-5.417V3.111zM70.26 38.044h5.416V3.113H70.26zM121.724 33.05H141.2v4.995h-24.893V3.112h24.413v4.993h-18.996v9.233h15.048v4.994h-15.048zM110.59 3.111l-6.563.008-11.26 14.475H90.44V3.11h-5.417v34.933h5.417v-14.48h2.32l11.266 14.479h6.557L96.997 20.58z" mask="url(#d)"/>
        </g>
    </g>
</svg>
