<svg xmlns="http://www.w3.org/2000/svg" width="199" height="64" viewBox="0 0 199 64">
    <g fill="none" fill-rule="evenodd">
        <path fill="#00DA00" d="M23.333 24.394L.01 47.718h12.465l23.324-23.324L12.474 1.07 0 1.06zM175.011 1v47.121l23.561-23.56z"/>
        <g fill="#FFF">
            <path d="M53.043 53.072l-4.127 5.412-4.128-5.412h-.923v9.964h1.07v-8.109l3.981 5.26 3.988-5.26v8.11h1.063v-9.965zM64.305 53.072v9.966h6.976v-.995h-5.906V58.34h4.621v-.994h-4.621v-3.272h5.759v-1.002zM83.727 54.073h-2.063v7.97h2.063c1.167 0 2.147-.386 2.94-1.16.792-.774 1.188-1.715 1.188-2.825s-.396-2.05-1.189-2.825c-.792-.773-1.772-1.16-2.939-1.16zm-3.134-1.001h3.134c1.45 0 2.678.489 3.683 1.467 1.005.977 1.508 2.149 1.508 3.515 0 1.367-.503 2.54-1.508 3.517-1.005.978-2.233 1.466-3.683 1.466h-3.134v-9.965zM98.615 63.037h1.07v-9.965h-1.07zM115.4 59.264l-1.918-4.698-1.924 4.698h3.842zm.431 1h-4.698l-1.139 2.773h-1.14l4.128-9.965h.993l4.128 9.965h-1.133l-1.139-2.772zM133.465 63.037h-6.191v-9.965h1.07v8.97h5.12zM148.58 59.264l-1.917-4.698-1.925 4.698h3.842zm.43 1h-4.696l-1.14 2.773h-1.14l4.128-9.965h.994l4.127 9.965h-1.132l-1.14-2.772zM161.524 62.043h2.987c.598 0 1.078-.174 1.443-.52.363-.349.545-.793.545-1.335 0-.552-.184-1.02-.553-1.407-.368-.387-.847-.58-1.435-.58h-2.987v3.842zm2.771-7.97h-2.77v3.19h2.77c.534 0 .952-.145 1.255-.435.304-.289.454-.686.454-1.192 0-.463-.15-.839-.454-1.129-.303-.289-.72-.434-1.255-.434zm1.641 3.627c.046.018.105.045.174.077.068.032.198.12.39.264.19.143.355.301.5.472.142.172.274.41.391.712.118.303.178.625.178.963 0 .824-.283 1.505-.848 2.042-.565.538-1.3.807-2.21.807h-4.057v-9.965h3.841c.807 0 1.47.247 1.993.74.52.494.781 1.102.781 1.824 0 .292-.037.562-.11.81-.077.248-.17.446-.288.594a3.021 3.021 0 0 1-.342.38 1.34 1.34 0 0 1-.283.21l-.11.07z"/>
        </g>
        <g fill="#FFF">
            <path d="M60.372 9.743h-9.844v14.483h9.844c1.999 0 3.705-.692 5.12-2.078 1.414-1.386 2.122-3.103 2.122-5.15 0-2.045-.708-3.766-2.122-5.161-1.415-1.395-3.121-2.094-5.12-2.094zm-16.21-5.8h16.21c3.866 0 7.104 1.27 9.717 3.805 2.61 2.537 3.917 5.62 3.917 9.25s-1.306 6.71-3.917 9.237c-2.613 2.527-5.851 3.79-9.717 3.79h-9.844v14.484h-6.365V3.944zM82.553 44.508h6.365V3.944h-6.365zM143.024 38.71h22.884v5.799H136.66V3.944h28.683v5.799h-22.318v10.72h17.68v5.8h-17.68zM129.94 3.944l-7.71.008L109 20.76h-2.734V3.944h-6.364v40.565h6.364V27.693h2.727l13.237 16.815h7.703L113.97 24.23z"/>
        </g>
    </g>
</svg>
